<svg width="22" height="22" fill="none" xmlns="http://www.w3.org/2000/svg"><path d="M7.562 2.292a5.281 5.281 0 00-5.27 5.27v6.876a5.282 5.282 0 005.27 5.27h6.875a5.282 5.282 0 005.271-5.27V7.563a5.281 5.281 0 00-5.27-5.271H7.561zm0 1.375h6.875a3.886 3.886 0 013.896 3.896v6.875a3.886 3.886 0 01-3.896 3.896H7.562a3.886 3.886 0 01-3.896-3.896V7.563a3.885 3.885 0 013.896-3.896zM15.583 5.5a.916.916 0 100 1.833.916.916 0 000-1.833zM11 6.417A4.594 4.594 0 006.417 11 4.594 4.594 0 0011 15.584 4.594 4.594 0 0015.583 11 4.594 4.594 0 0011 6.417zm0 1.375A3.198 3.198 0 0114.208 11 3.198 3.198 0 0111 14.21 3.198 3.198 0 017.792 11 3.198 3.198 0 0111 7.792z" fill="#4B4F5A"/></svg>