<svg width="22" height="22" fill="none" xmlns="http://www.w3.org/2000/svg"><path d="M11 .917A5.042 5.042 0 1011 11 5.042 5.042 0 0011 .917zm0 3.184a1.857 1.857 0 110 3.715A1.857 1.857 0 0111 4.1zm4.21 6.92a1.823 1.823 0 00-1.03.262c-1.902 1.146-4.458 1.146-6.36 0a1.835 1.835 0 00-2.725 2.013c.118.475.414.876.834 1.128.67.404 1.386.724 2.14.957l-2.564 2.65a1.823 1.823 0 00-.46 1.326 1.835 1.835 0 003.188 1.124L11 17.621l2.756 2.845a1.833 1.833 0 002.588.152 1.84 1.84 0 00.14-2.602l-2.552-2.635a9.729 9.729 0 002.14-.957 1.82 1.82 0 00.834-1.128 1.823 1.823 0 00-.21-1.388 1.82 1.82 0 00-1.486-.886z" fill="#4B4F5A"/></svg>