<svg width="24" height="28" fill="none" xmlns="http://www.w3.org/2000/svg"><path d="M13.232.242a.937.937 0 00-.645.283l-2.42 2.42a.937.937 0 00-.176.176l-.216.216a.938.938 0 000 1.326l2.812 2.812a.936.936 0 101.326-1.325l-1.504-1.504A9.352 9.352 0 0121.375 14c0 3.173-1.573 5.96-3.978 7.658a.938.938 0 001.081 1.532A11.24 11.24 0 0023.25 14c0-5.877-4.534-10.71-10.286-11.201l.949-.949a.938.938 0 00-.681-1.608zm-7.12 4.39a.938.938 0 00-.59.179A11.24 11.24 0 00.75 14c0 5.876 4.534 10.709 10.286 11.2l-.949.949a.937.937 0 101.326 1.326l2.42-2.42a.942.942 0 00.176-.177l.216-.216a.937.937 0 000-1.326l-2.812-2.812a.937.937 0 10-1.326 1.326l1.504 1.503A9.352 9.352 0 012.625 14c0-3.172 1.573-5.959 3.978-7.657a.938.938 0 00-.492-1.71z" fill="#fff"/></svg>