<svg width="28" height="28" fill="none" xmlns="http://www.w3.org/2000/svg"><path d="M25.667 14c0 6.443-5.224 11.666-11.667 11.666S2.334 20.443 2.334 14C2.334 7.557 7.557 2.333 14 2.333c6.443 0 11.667 5.224 11.667 11.667z" fill="url(#paint0_linear_35_15822)"/><path opacity=".05" d="M5.903 13.688c4.757-2.155 10.344-4.494 11.205-4.832 1.897-.746 2.724.016 2.594 1.232-.159 1.49-.914 5.828-1.378 8.935-.272 1.819-1.257 2.376-2.368 1.67-.843-.535-3.74-2.432-4.503-3.08-.52-.443-.882-.939-.514-1.444.108-.148.384-.445.538-.593.77-.746.665-.906-.265-.24-.111.079-.754.545-1.018.721-.648.432-1.243.455-2.253.112-.826-.28-1.62-.497-2.12-.713-.691-.3-.956-1.298.082-1.768z" fill="#000"/><path opacity=".07" d="M6.321 13.762a439.746 439.746 0 0110.644-4.558c1.904-.769 2.604-.313 2.4 1.173-.19 1.376-.865 5.632-1.339 8.485-.278 1.68-1.093 2.049-2.153 1.363-.665-.428-3.339-2.19-3.987-2.703-.502-.396-1.022-.853-.414-1.515.203-.221 1.324-1.303 2.162-2.108.486-.467.313-.698-.274-.297-1.075.737-2.833 1.903-3.147 2.115-.598.402-1.16.5-2.138.192-.77-.243-1.515-.478-1.903-.629-.866-.336-.878-1.06.15-1.518z" fill="#000"/><path d="M6.739 13.835c4.077-1.794 9.354-3.981 10.082-4.284 1.91-.792 2.497-.64 2.205 1.114-.21 1.261-.816 5.436-1.299 8.035-.286 1.541-.929 1.724-1.94 1.057-.485-.32-2.938-1.943-3.47-2.324-.487-.347-1.157-.765-.316-1.587.299-.293 2.26-2.165 3.787-3.623.2-.191-.051-.505-.282-.352-2.06 1.366-4.914 3.26-5.277 3.508-.55.372-1.077.543-2.023.271-.715-.205-1.413-.45-1.685-.543-1.047-.36-.799-.825.218-1.272z" fill="#fff"/><defs><linearGradient id="paint0_linear_35_15822" x1="5.751" y1="5.75" x2="22.25" y2="22.249" gradientUnits="userSpaceOnUse"><stop stop-color="#33BEF0"/><stop offset="1" stop-color="#0A85D9"/></linearGradient></defs></svg>