<svg width="22" height="22" fill="none" xmlns="http://www.w3.org/2000/svg"><path d="M12.655 12.655c-1.349 1.39-1.447 3.125-1.563 6.925 3.542 0 5.987-.012 7.25-1.238 1.226-1.262 1.238-3.824 1.238-7.25-3.8.122-5.534.214-6.925 1.563zM2.42 11.092c0 3.426.012 5.987 1.238 7.25 1.262 1.226 3.708 1.238 7.25 1.238-.123-3.8-.214-5.534-1.563-6.925-1.391-1.349-3.125-1.447-6.925-1.563zm8.488-8.672c-3.536 0-5.988.012-7.25 1.238C2.432 4.92 2.42 7.482 2.42 10.908c3.8-.123 5.534-.214 6.925-1.563 1.348-1.391 1.447-3.125 1.563-6.925zm1.747 6.925c-1.349-1.391-1.447-3.125-1.563-6.925 3.542 0 5.987.012 7.25 1.238 1.226 1.262 1.238 3.824 1.238 7.25-3.8-.123-5.534-.214-6.925-1.563z" fill="#4B4F5A"/><path d="M19.58 11.092v-.184c-3.8-.123-5.534-.214-6.925-1.563-1.349-1.391-1.447-3.125-1.563-6.925h-.184c-.123 3.8-.214 5.534-1.563 6.925-1.391 1.348-3.125 1.447-6.925 1.563v.184c3.8.122 5.534.214 6.925 1.563 1.348 1.39 1.447 3.125 1.563 6.925h.184c.122-3.8.214-5.534 1.563-6.925 1.39-1.349 3.125-1.447 6.925-1.563z" fill="#fff"/></svg>