<svg width="22" height="22" fill="none" xmlns="http://www.w3.org/2000/svg"><path d="M20.533 5.087a7.808 7.808 0 01-2.247.616 3.919 3.919 0 001.72-2.164 7.844 7.844 0 01-2.485.95 3.912 3.912 0 00-6.665 3.567 11.105 11.105 0 01-8.063-4.088 3.902 3.902 0 00-.529 1.967c0 1.357.69 2.555 1.74 3.256a3.904 3.904 0 01-1.772-.49v.05a3.912 3.912 0 003.138 3.835 3.916 3.916 0 01-1.767.067 3.916 3.916 0 003.655 2.717 7.846 7.846 0 01-5.792 1.62 11.075 11.075 0 005.996 1.758c7.196 0 11.13-5.961 11.13-11.13 0-.17-.004-.338-.012-.506a7.96 7.96 0 001.953-2.025z" fill="#4B4F5A"/></svg>