<svg width="28" height="28" fill="none" xmlns="http://www.w3.org/2000/svg"><path d="M14 2.917c-1.54 0-6.224 0-8.814 2.365-1.543 1.536-2.27 3.756-2.27 6.968V14c0 3.212.727 5.432 2.288 6.986.777.71 1.836 1.276 3.131 1.667l.415.125v3.108c0 .364.105.364.14.364.072 0 .187-.022.405-.216.053-.052.438-.468 2.31-2.566l.19-.212.282.018c.627.04 1.274.06 1.923.06 1.54 0 6.224 0 8.814-2.366 1.542-1.536 2.27-3.756 2.27-6.968v-1.75c0-3.212-.728-5.432-2.288-6.986C20.224 2.917 15.539 2.917 14 2.917z" fill="#fff"/><path d="M19.513 16.832c-.648-.546-.947-.711-1.842-1.248-.373-.224-.941-.417-1.24-.417-.203 0-.447.156-.596.305-.383.383-.508.862-1.179.862-.656 0-1.802-.668-2.625-1.532-.863-.822-1.531-1.968-1.531-2.625 0-.67.47-.805.853-1.188.149-.149.313-.392.313-.596 0-.298-.193-.858-.416-1.23-.537-.896-.702-1.195-1.248-1.842C9.817 7.1 9.606 7 9.386 7c-.373-.001-.862.184-1.194.43-.498.372-1.019.878-1.158 1.508A1.5 1.5 0 007 9.197c-.026.656.231 1.323.51 1.887.655 1.33 1.522 2.616 2.465 3.765.302.368.63.71.97 1.04.33.34.672.668 1.04.97 1.149.943 2.436 1.81 3.765 2.465.559.275 1.217.528 1.866.51a1.52 1.52 0 00.279-.034c.63-.139 1.136-.66 1.507-1.159.247-.331.432-.82.431-1.193 0-.22-.1-.431-.32-.616zm.32-2.832a.583.583 0 01-.583-.583v-.583A5.256 5.256 0 0014 7.584a.584.584 0 010-1.167 6.424 6.424 0 016.416 6.417v.583a.583.583 0 01-.583.583zm-3.583-1.166a.583.583 0 01-.564-.437 1.743 1.743 0 00-1.249-1.25.584.584 0 01.293-1.13 2.913 2.913 0 012.085 2.086.584.584 0 01-.565.73z" fill="#7E57C2"/><path d="M18.083 13.417a.583.583 0 01-.583-.584 3.496 3.496 0 00-3.312-3.491.583.583 0 11.061-1.165 4.662 4.662 0 014.418 4.656.583.583 0 01-.584.584z" fill="#7E57C2"/><path d="M14 2.333c-2.625 0-6.715.242-9.207 2.518-1.762 1.754-2.46 4.214-2.46 7.399l.001.875c-.002.316 0 .61 0 .874 0 3.184.697 5.645 2.459 7.4.948.865 2.131 1.435 3.374 1.81v2.676c0 .931.612.948.724.948h.005c.288-.001.537-.142.787-.364.094-.083 1.178-1.292 2.358-2.614.702.045 1.37.061 1.958.061 2.625 0 6.715-.242 9.208-2.518 1.76-1.753 2.46-4.215 2.46-7.399 0-.264 0-.558-.002-.875.002-.317.001-.61.001-.875 0-3.184-.698-5.645-2.46-7.399-2.49-2.275-6.58-2.517-9.206-2.517zm9.917 11.463V14c0 2.862-.61 4.812-1.917 6.132-2.265 2.035-6.578 2.035-8 2.035-.433 0-1.136 0-1.965-.058-.23.259-2.702 3.023-2.702 3.023v-3.42c-1.227-.294-2.44-.777-3.333-1.58-1.307-1.32-1.917-3.27-1.917-6.132v-.203l.001-.684a63.439 63.439 0 010-.66v-.202c0-2.862.609-4.812 1.916-6.132 2.264-2.036 6.578-2.036 8-2.036 1.421 0 5.735 0 8 2.036 1.307 1.32 1.916 3.27 1.916 6.132v.203l-.001.684c.002.234.002.454.002.66z" fill="#7E57C2"/></svg>