<svg width="22" height="22" fill="none" xmlns="http://www.w3.org/2000/svg"><path d="M20.975 16.134c-.824-1.482-2.946-3.264-3.821-4.039a.57.57 0 01-.048-.814c1.672-1.796 3.009-3.86 3.47-5.107.202-.55-.218-1.133-.81-1.133h-1.72c-.567 0-.9.204-1.057.528-1.39 2.846-2.581 4.078-3.415 4.798a.724.724 0 01-1.196-.544V6.028a.955.955 0 00-.96-.951l-3.142-.036a.476.476 0 00-.384.762l.518.745c.196.258.301.572.301.894l-.003 3.354c0 .584-.707.869-1.127.46-1.42-1.383-2.653-4.208-3.096-5.559a.957.957 0 00-.91-.656l-1.694-.004a.956.956 0 00-.928 1.21C2.5 11.68 5.678 16.85 11.339 17.412a.954.954 0 001.04-.95v-1.763c0-.506.396-.94.905-.953h.054c1.497 0 3.174 2.179 3.761 3.198a.949.949 0 00.825.472h2.28c.664 0 1.091-.705.77-1.282z" fill="#4B4F5A"/></svg>